<mxfile host="drawio-plugin" modified="2022-04-06T13:04:54.216Z" agent="5.0 (Macintosh; Intel Mac OS X 12_3_1) AppleWebKit/537.36 (KHTML, like Gecko) Chrome/89.0.4389.114 Safari/537.36" etag="w0TzEVKQ9Xqx4xPtCG36" version="15.5.4" type="embed"><diagram id="-G4cPZcFNrwOz_GLT_Gy" name="Page-1"><mxGraphModel dx="3523" dy="4137" grid="1" gridSize="10" guides="1" tooltips="1" connect="1" arrows="1" fold="1" page="1" pageScale="1" pageWidth="850" pageHeight="1100" background="#ffffff" math="0" shadow="0"><root><mxCell id="0"/><mxCell id="1" parent="0"/><mxCell id="225" value="&lt;font style=&quot;font-size: 12px;&quot;&gt;회원 등록 / 수정 이벤트&lt;/font&gt;" style="edgeStyle=orthogonalEdgeStyle;rounded=0;orthogonalLoop=1;jettySize=auto;html=1;exitX=1;exitY=0.5;exitDx=0;exitDy=0;entryX=0;entryY=0.25;entryDx=0;entryDy=0;dashed=1;fontColor=#000000;strokeColor=#000000;labelBackgroundColor=none;fontSize=12;fontStyle=1" edge="1" parent="1" source="86" target="133"><mxGeometry relative="1" as="geometry"/></mxCell><mxCell id="86" value="회원" style="swimlane;fontSize=40;verticalAlign=middle;horizontal=1;startSize=100;" parent="1" vertex="1"><mxGeometry x="-635" y="-1880" width="700" height="420" as="geometry"><mxRectangle x="1.5" y="-60" width="578.5" height="100" as="alternateBounds"/></mxGeometry></mxCell><mxCell id="3" value="&lt;font color=&quot;#000000&quot;&gt;회원이 등록되었다&lt;/font&gt;" style="rounded=1;whiteSpace=wrap;html=1;fillColor=#ffe6cc;strokeColor=#d79b00;glass=0;gradientColor=none;fontStyle=1" parent="86" vertex="1"><mxGeometry x="540" y="180" width="120" height="60" as="geometry"/></mxCell><mxCell id="4" value="&lt;font color=&quot;#000000&quot;&gt;회원이 로그인되었다&lt;/font&gt;" style="rounded=1;whiteSpace=wrap;html=1;fillColor=#ffe6cc;strokeColor=#d79b00;glass=0;gradientColor=none;fontStyle=1" parent="86" vertex="1"><mxGeometry x="190" y="180" width="120" height="60" as="geometry"/></mxCell><mxCell id="6" value="&lt;font color=&quot;#000000&quot;&gt;회원정보가 수정되었다&lt;br&gt;&lt;/font&gt;" style="rounded=1;whiteSpace=wrap;html=1;fillColor=#ffe6cc;strokeColor=#d79b00;glass=0;gradientColor=none;fontStyle=1" parent="86" vertex="1"><mxGeometry x="540" y="320" width="120" height="60" as="geometry"/></mxCell><mxCell id="17" value="회원가입" style="rounded=1;whiteSpace=wrap;html=1;fillColor=#dae8fc;strokeColor=#6c8ebf;glass=0;fontStyle=1;fontColor=#000000;" parent="86" vertex="1"><mxGeometry x="410.0000000000001" y="180" width="120" height="60" as="geometry"/></mxCell><mxCell id="18" value="로그인" style="rounded=1;whiteSpace=wrap;html=1;fillColor=#dae8fc;strokeColor=#6c8ebf;glass=0;fontStyle=1;fontColor=#000000;" parent="86" vertex="1"><mxGeometry x="60.000000000000114" y="180" width="120" height="60" as="geometry"/></mxCell><mxCell id="20" value="회원정보 수정" style="rounded=1;whiteSpace=wrap;html=1;fillColor=#dae8fc;strokeColor=#6c8ebf;glass=0;fontStyle=1;fontColor=#000000;" parent="86" vertex="1"><mxGeometry x="410.0000000000001" y="320" width="120" height="60" as="geometry"/></mxCell><mxCell id="41" value="&lt;b&gt;&lt;font style=&quot;font-size: 10px&quot;&gt;최초 사용자&lt;/font&gt;&lt;/b&gt;" style="rounded=0;whiteSpace=wrap;html=1;fillColor=#fff2cc;strokeColor=#d6b656;fontColor=#000000;" parent="86" vertex="1"><mxGeometry x="380.0000000000001" y="220" width="60" height="30" as="geometry"/></mxCell><mxCell id="42" value="&lt;b&gt;&lt;font style=&quot;font-size: 10px&quot;&gt;회원&lt;/font&gt;&lt;/b&gt;" style="rounded=0;whiteSpace=wrap;html=1;fillColor=#fff2cc;strokeColor=#d6b656;fontColor=#000000;" parent="86" vertex="1"><mxGeometry x="30.000000000000114" y="220" width="60" height="30" as="geometry"/></mxCell><mxCell id="44" value="&lt;b&gt;&lt;font style=&quot;font-size: 10px&quot;&gt;회원&lt;/font&gt;&lt;/b&gt;" style="rounded=0;whiteSpace=wrap;html=1;fillColor=#fff2cc;strokeColor=#d6b656;fontColor=#000000;" parent="86" vertex="1"><mxGeometry x="380.0000000000001" y="360" width="60" height="30" as="geometry"/></mxCell><mxCell id="61" value="회원" style="rounded=1;whiteSpace=wrap;html=1;fillColor=#ffff88;strokeColor=#36393d;glass=0;fontStyle=1;fontColor=#000000;" parent="86" vertex="1"><mxGeometry x="470" y="120" width="120" height="60" as="geometry"/></mxCell><mxCell id="62" value="회원" style="rounded=1;whiteSpace=wrap;html=1;fillColor=#ffff88;strokeColor=#36393d;glass=0;fontStyle=1;fontColor=#000000;" parent="86" vertex="1"><mxGeometry x="120" y="120" width="120" height="60" as="geometry"/></mxCell><mxCell id="64" value="회원" style="rounded=1;whiteSpace=wrap;html=1;fillColor=#ffff88;strokeColor=#36393d;glass=0;fontStyle=1;fontColor=#000000;" parent="86" vertex="1"><mxGeometry x="470" y="260" width="120" height="60" as="geometry"/></mxCell><mxCell id="133" value="프로필" style="swimlane;fontSize=40;verticalAlign=middle;horizontal=1;startSize=100;" parent="1" vertex="1"><mxGeometry x="375" y="-1890" width="1300" height="570" as="geometry"><mxRectangle x="1.5" y="-60" width="578.5" height="100" as="alternateBounds"/></mxGeometry></mxCell><mxCell id="8" value="&lt;font color=&quot;#000000&quot;&gt;회원이 팔로우 되었다&lt;br&gt;&lt;/font&gt;" style="rounded=1;whiteSpace=wrap;html=1;fillColor=#ffe6cc;strokeColor=#d79b00;glass=0;gradientColor=none;fontStyle=1" parent="133" vertex="1"><mxGeometry x="500" y="180" width="120" height="60" as="geometry"/></mxCell><mxCell id="9" value="&lt;font color=&quot;#000000&quot;&gt;회원이 언팔로우 되었다&lt;br&gt;&lt;/font&gt;" style="rounded=1;whiteSpace=wrap;html=1;fillColor=#ffe6cc;strokeColor=#d79b00;glass=0;gradientColor=none;fontStyle=1" parent="133" vertex="1"><mxGeometry x="500" y="320" width="120" height="60" as="geometry"/></mxCell><mxCell id="22" value="회원 팔로우" style="rounded=1;whiteSpace=wrap;html=1;fillColor=#dae8fc;strokeColor=#6c8ebf;glass=0;fontStyle=1;fontColor=#000000;" parent="133" vertex="1"><mxGeometry x="370.0000000000001" y="180" width="120" height="60" as="geometry"/></mxCell><mxCell id="23" value="회원 언팔로우" style="rounded=1;whiteSpace=wrap;html=1;fillColor=#dae8fc;strokeColor=#6c8ebf;glass=0;fontStyle=1;fontColor=#000000;" parent="133" vertex="1"><mxGeometry x="370.0000000000001" y="320" width="120" height="60" as="geometry"/></mxCell><mxCell id="46" value="&lt;b&gt;&lt;font style=&quot;font-size: 10px&quot;&gt;회원&lt;/font&gt;&lt;/b&gt;" style="rounded=0;whiteSpace=wrap;html=1;fillColor=#fff2cc;strokeColor=#d6b656;fontColor=#000000;" parent="133" vertex="1"><mxGeometry x="340.0000000000001" y="220" width="60" height="30" as="geometry"/></mxCell><mxCell id="47" value="&lt;b&gt;&lt;font style=&quot;font-size: 10px&quot;&gt;회원&lt;/font&gt;&lt;/b&gt;" style="rounded=0;whiteSpace=wrap;html=1;fillColor=#fff2cc;strokeColor=#d6b656;fontColor=#000000;" parent="133" vertex="1"><mxGeometry x="340.0000000000001" y="360" width="60" height="30" as="geometry"/></mxCell><mxCell id="66" value="팔로우" style="rounded=1;whiteSpace=wrap;html=1;fillColor=#ffff88;strokeColor=#36393d;glass=0;fontStyle=1;fontColor=#000000;" parent="133" vertex="1"><mxGeometry x="440" y="120" width="120" height="60" as="geometry"/></mxCell><mxCell id="67" value="팔로우" style="rounded=1;whiteSpace=wrap;html=1;fillColor=#ffff88;strokeColor=#36393d;glass=0;fontStyle=1;fontColor=#000000;" parent="133" vertex="1"><mxGeometry x="440" y="260" width="120" height="60" as="geometry"/></mxCell><mxCell id="172" value="&lt;font color=&quot;#000000&quot;&gt;프로필이 생성되었다&lt;/font&gt;" style="rounded=1;whiteSpace=wrap;html=1;fillColor=#ffe6cc;strokeColor=#d79b00;glass=0;gradientColor=none;fontStyle=1" vertex="1" parent="133"><mxGeometry x="170" y="180" width="120" height="60" as="geometry"/></mxCell><mxCell id="173" value="프로필 생성" style="rounded=1;whiteSpace=wrap;html=1;fillColor=#dae8fc;strokeColor=#6c8ebf;glass=0;fontStyle=1;fontColor=#000000;" vertex="1" parent="133"><mxGeometry x="40.000000000000114" y="180" width="120" height="60" as="geometry"/></mxCell><mxCell id="175" value="프로필" style="rounded=1;whiteSpace=wrap;html=1;fillColor=#ffff88;strokeColor=#36393d;glass=0;fontStyle=1;fontColor=#000000;" vertex="1" parent="133"><mxGeometry x="100" y="120" width="120" height="60" as="geometry"/></mxCell><mxCell id="176" value="&lt;font color=&quot;#000000&quot;&gt;프로필이 수정되었다&lt;br&gt;&lt;/font&gt;" style="rounded=1;whiteSpace=wrap;html=1;fillColor=#ffe6cc;strokeColor=#d79b00;glass=0;gradientColor=none;fontStyle=1" vertex="1" parent="133"><mxGeometry x="170" y="320" width="120" height="60" as="geometry"/></mxCell><mxCell id="177" value="프로필 수정" style="rounded=1;whiteSpace=wrap;html=1;fillColor=#dae8fc;strokeColor=#6c8ebf;glass=0;fontStyle=1;fontColor=#000000;" vertex="1" parent="133"><mxGeometry x="40.000000000000114" y="320" width="120" height="60" as="geometry"/></mxCell><mxCell id="178" value="프로필" style="rounded=1;whiteSpace=wrap;html=1;fillColor=#ffff88;strokeColor=#36393d;glass=0;fontStyle=1;fontColor=#000000;" vertex="1" parent="133"><mxGeometry x="100" y="260" width="120" height="60" as="geometry"/></mxCell><mxCell id="179" value="&lt;b&gt;&lt;font style=&quot;font-size: 10px&quot;&gt;시스템&lt;/font&gt;&lt;/b&gt;" style="rounded=0;whiteSpace=wrap;html=1;fillColor=#fff2cc;strokeColor=#d6b656;fontColor=#000000;" vertex="1" parent="133"><mxGeometry x="10.000000000000114" y="220" width="60" height="30" as="geometry"/></mxCell><mxCell id="180" value="&lt;b&gt;&lt;font style=&quot;font-size: 10px&quot;&gt;시스템&lt;/font&gt;&lt;/b&gt;" style="rounded=0;whiteSpace=wrap;html=1;fillColor=#fff2cc;strokeColor=#d6b656;fontColor=#000000;" vertex="1" parent="133"><mxGeometry x="10.000000000000114" y="360" width="60" height="30" as="geometry"/></mxCell><mxCell id="189" value="&lt;font color=&quot;#000000&quot;&gt;게시물이 등록되었다&lt;br&gt;&lt;/font&gt;" style="rounded=1;whiteSpace=wrap;html=1;fillColor=#ffe6cc;strokeColor=#d79b00;glass=0;gradientColor=none;fontStyle=1" vertex="1" parent="133"><mxGeometry x="820" y="180" width="120" height="60" as="geometry"/></mxCell><mxCell id="190" value="&lt;span style=&quot;color: rgb(0 , 0 , 0)&quot;&gt;게시물이 수정되었다&lt;/span&gt;" style="rounded=1;whiteSpace=wrap;html=1;fillColor=#ffe6cc;strokeColor=#d79b00;glass=0;gradientColor=none;fontStyle=1" vertex="1" parent="133"><mxGeometry x="820" y="320" width="120" height="60" as="geometry"/></mxCell><mxCell id="191" value="게시물 등록" style="rounded=1;whiteSpace=wrap;html=1;fillColor=#dae8fc;strokeColor=#6c8ebf;glass=0;fontStyle=1;fontColor=#000000;" vertex="1" parent="133"><mxGeometry x="690" y="180" width="120" height="60" as="geometry"/></mxCell><mxCell id="192" value="게시물 수정" style="rounded=1;whiteSpace=wrap;html=1;fillColor=#dae8fc;strokeColor=#6c8ebf;glass=0;fontStyle=1;fontColor=#000000;" vertex="1" parent="133"><mxGeometry x="690" y="320" width="120" height="60" as="geometry"/></mxCell><mxCell id="193" value="&lt;b&gt;&lt;font style=&quot;font-size: 10px&quot;&gt;시스템&lt;/font&gt;&lt;/b&gt;" style="rounded=0;whiteSpace=wrap;html=1;fillColor=#fff2cc;strokeColor=#d6b656;fontColor=#000000;" vertex="1" parent="133"><mxGeometry x="660" y="220" width="60" height="30" as="geometry"/></mxCell><mxCell id="194" value="&lt;span style=&quot;font-size: 10px&quot;&gt;&lt;b&gt;시스템&lt;/b&gt;&lt;/span&gt;" style="rounded=0;whiteSpace=wrap;html=1;fillColor=#fff2cc;strokeColor=#d6b656;fontColor=#000000;" vertex="1" parent="133"><mxGeometry x="660" y="370" width="60" height="30" as="geometry"/></mxCell><mxCell id="195" value="게시물" style="rounded=1;whiteSpace=wrap;html=1;fillColor=#ffff88;strokeColor=#36393d;glass=0;fontStyle=1;fontColor=#000000;" vertex="1" parent="133"><mxGeometry x="760" y="120" width="120" height="60" as="geometry"/></mxCell><mxCell id="196" value="게시물" style="rounded=1;whiteSpace=wrap;html=1;fillColor=#ffff88;strokeColor=#36393d;glass=0;fontStyle=1;fontColor=#000000;" vertex="1" parent="133"><mxGeometry x="760" y="260" width="120" height="60" as="geometry"/></mxCell><mxCell id="213" value="&lt;span style=&quot;color: rgb(0 , 0 , 0)&quot;&gt;게시물이 삭제되었다&lt;/span&gt;" style="rounded=1;whiteSpace=wrap;html=1;fillColor=#ffe6cc;strokeColor=#d79b00;glass=0;gradientColor=none;fontStyle=1" vertex="1" parent="133"><mxGeometry x="820" y="470" width="120" height="60" as="geometry"/></mxCell><mxCell id="214" value="게시물 삭제" style="rounded=1;whiteSpace=wrap;html=1;fillColor=#dae8fc;strokeColor=#6c8ebf;glass=0;fontStyle=1;fontColor=#000000;" vertex="1" parent="133"><mxGeometry x="690" y="470" width="120" height="60" as="geometry"/></mxCell><mxCell id="215" value="&lt;span style=&quot;font-size: 10px&quot;&gt;&lt;b&gt;시스템&lt;/b&gt;&lt;/span&gt;" style="rounded=0;whiteSpace=wrap;html=1;fillColor=#fff2cc;strokeColor=#d6b656;fontColor=#000000;" vertex="1" parent="133"><mxGeometry x="660" y="520" width="60" height="30" as="geometry"/></mxCell><mxCell id="216" value="게시물" style="rounded=1;whiteSpace=wrap;html=1;fillColor=#ffff88;strokeColor=#36393d;glass=0;fontStyle=1;fontColor=#000000;" vertex="1" parent="133"><mxGeometry x="760" y="410" width="120" height="60" as="geometry"/></mxCell><mxCell id="205" value="&lt;font color=&quot;#000000&quot;&gt;게시물이 즐겨찾기&lt;br&gt;되었다&lt;br&gt;&lt;/font&gt;" style="rounded=1;whiteSpace=wrap;html=1;fillColor=#ffe6cc;strokeColor=#d79b00;glass=0;gradientColor=none;fontStyle=1" vertex="1" parent="133"><mxGeometry x="1150" y="180" width="120" height="60" as="geometry"/></mxCell><mxCell id="206" value="&lt;font color=&quot;#000000&quot;&gt;게시물 즐겨찾기가 &lt;br&gt;해제되었다&lt;br&gt;&lt;/font&gt;" style="rounded=1;whiteSpace=wrap;html=1;fillColor=#ffe6cc;strokeColor=#d79b00;glass=0;gradientColor=none;fontStyle=1" vertex="1" parent="133"><mxGeometry x="1150" y="320" width="120" height="60" as="geometry"/></mxCell><mxCell id="207" value="게시물 즐겨찾기" style="rounded=1;whiteSpace=wrap;html=1;fillColor=#dae8fc;strokeColor=#6c8ebf;glass=0;fontStyle=1;fontColor=#000000;" vertex="1" parent="133"><mxGeometry x="1020" y="180" width="120" height="60" as="geometry"/></mxCell><mxCell id="208" value="게시물 즐겨찾기 해제" style="rounded=1;whiteSpace=wrap;html=1;fillColor=#dae8fc;strokeColor=#6c8ebf;glass=0;fontStyle=1;fontColor=#000000;" vertex="1" parent="133"><mxGeometry x="1020" y="320" width="120" height="60" as="geometry"/></mxCell><mxCell id="209" value="&lt;b&gt;&lt;font style=&quot;font-size: 10px&quot;&gt;시스템&lt;/font&gt;&lt;/b&gt;" style="rounded=0;whiteSpace=wrap;html=1;fillColor=#fff2cc;strokeColor=#d6b656;fontColor=#000000;" vertex="1" parent="133"><mxGeometry x="990" y="220" width="60" height="30" as="geometry"/></mxCell><mxCell id="210" value="&lt;span style=&quot;font-size: 10px&quot;&gt;&lt;b&gt;시스템&lt;/b&gt;&lt;/span&gt;" style="rounded=0;whiteSpace=wrap;html=1;fillColor=#fff2cc;strokeColor=#d6b656;fontColor=#000000;" vertex="1" parent="133"><mxGeometry x="990" y="370" width="60" height="30" as="geometry"/></mxCell><mxCell id="211" value="즐겨찾기" style="rounded=1;whiteSpace=wrap;html=1;fillColor=#ffff88;strokeColor=#36393d;glass=0;fontStyle=1;fontColor=#000000;" vertex="1" parent="133"><mxGeometry x="1090" y="120" width="120" height="60" as="geometry"/></mxCell><mxCell id="212" value="즐겨찾기" style="rounded=1;whiteSpace=wrap;html=1;fillColor=#ffff88;strokeColor=#36393d;glass=0;fontStyle=1;fontColor=#000000;" vertex="1" parent="133"><mxGeometry x="1090" y="260" width="120" height="60" as="geometry"/></mxCell><mxCell id="150" value="태그" style="swimlane;fontSize=40;verticalAlign=middle;horizontal=1;startSize=100;" parent="1" vertex="1"><mxGeometry x="400" y="-1255" width="300" height="540" as="geometry"><mxRectangle x="1.5" y="-60" width="578.5" height="100" as="alternateBounds"/></mxGeometry></mxCell><mxCell id="16" value="&lt;font color=&quot;#000000&quot;&gt;태그가 생성되었다&lt;br&gt;&lt;/font&gt;" style="rounded=1;whiteSpace=wrap;html=1;fillColor=#ffe6cc;strokeColor=#d79b00;glass=0;gradientColor=none;fontStyle=1" parent="150" vertex="1"><mxGeometry x="160" y="180" width="120" height="60" as="geometry"/></mxCell><mxCell id="34" value="태그 생성" style="rounded=1;whiteSpace=wrap;html=1;fillColor=#dae8fc;strokeColor=#6c8ebf;glass=0;fontStyle=1;fontColor=#000000;" parent="150" vertex="1"><mxGeometry x="30" y="180" width="120" height="60" as="geometry"/></mxCell><mxCell id="77" value="태그" style="rounded=1;whiteSpace=wrap;html=1;fillColor=#ffff88;strokeColor=#36393d;glass=0;fontStyle=1;fontColor=#000000;" parent="150" vertex="1"><mxGeometry x="100" y="120" width="120" height="60" as="geometry"/></mxCell><mxCell id="219" value="&lt;font color=&quot;#000000&quot;&gt;태그가 수정되었다&lt;br&gt;&lt;/font&gt;" style="rounded=1;whiteSpace=wrap;html=1;fillColor=#ffe6cc;strokeColor=#d79b00;glass=0;gradientColor=none;fontStyle=1" vertex="1" parent="150"><mxGeometry x="155" y="320" width="120" height="60" as="geometry"/></mxCell><mxCell id="220" value="태그 수정" style="rounded=1;whiteSpace=wrap;html=1;fillColor=#dae8fc;strokeColor=#6c8ebf;glass=0;fontStyle=1;fontColor=#000000;" vertex="1" parent="150"><mxGeometry x="25" y="320" width="120" height="60" as="geometry"/></mxCell><mxCell id="221" value="태그" style="rounded=1;whiteSpace=wrap;html=1;fillColor=#ffff88;strokeColor=#36393d;glass=0;fontStyle=1;fontColor=#000000;" vertex="1" parent="150"><mxGeometry x="95" y="260" width="120" height="60" as="geometry"/></mxCell><mxCell id="222" value="&lt;font color=&quot;#000000&quot;&gt;태그가 삭제되었다&lt;br&gt;&lt;/font&gt;" style="rounded=1;whiteSpace=wrap;html=1;fillColor=#ffe6cc;strokeColor=#d79b00;glass=0;gradientColor=none;fontStyle=1" vertex="1" parent="150"><mxGeometry x="150" y="460" width="120" height="60" as="geometry"/></mxCell><mxCell id="223" value="태그 삭제" style="rounded=1;whiteSpace=wrap;html=1;fillColor=#dae8fc;strokeColor=#6c8ebf;glass=0;fontStyle=1;fontColor=#000000;" vertex="1" parent="150"><mxGeometry x="20" y="460" width="120" height="60" as="geometry"/></mxCell><mxCell id="224" value="태그" style="rounded=1;whiteSpace=wrap;html=1;fillColor=#ffff88;strokeColor=#36393d;glass=0;fontStyle=1;fontColor=#000000;" vertex="1" parent="150"><mxGeometry x="90" y="400" width="120" height="60" as="geometry"/></mxCell><mxCell id="226" value="" style="edgeStyle=orthogonalEdgeStyle;rounded=0;orthogonalLoop=1;jettySize=auto;html=1;exitX=1;exitY=0.5;exitDx=0;exitDy=0;entryX=0;entryY=0.5;entryDx=0;entryDy=0;dashed=1;fontColor=#000000;strokeColor=#000000;labelBackgroundColor=none;fontStyle=1;fontSize=12;" edge="1" parent="1" source="171" target="150"><mxGeometry relative="1" as="geometry"/></mxCell><mxCell id="227" value="게시물 등록 / 수정 / 삭제 이벤트" style="edgeStyle=orthogonalEdgeStyle;rounded=0;orthogonalLoop=1;jettySize=auto;html=1;exitX=1;exitY=0.5;exitDx=0;exitDy=0;entryX=0;entryY=0.5;entryDx=0;entryDy=0;dashed=1;fontColor=#000000;strokeColor=#000000;fontSize=12;labelBackgroundColor=none;fontStyle=1" edge="1" parent="1" source="171" target="133"><mxGeometry relative="1" as="geometry"/></mxCell><mxCell id="171" value="게시물" style="swimlane;fontSize=40;verticalAlign=middle;horizontal=1;startSize=100;" parent="1" vertex="1"><mxGeometry x="-825" y="-1260" width="990" height="550" as="geometry"><mxRectangle x="1.5" y="-60" width="578.5" height="100" as="alternateBounds"/></mxGeometry></mxCell><mxCell id="11" value="&lt;font color=&quot;#000000&quot;&gt;게시물이 등록되었다&lt;br&gt;&lt;/font&gt;" style="rounded=1;whiteSpace=wrap;html=1;fillColor=#ffe6cc;strokeColor=#d79b00;glass=0;gradientColor=none;fontStyle=1" parent="171" vertex="1"><mxGeometry x="190" y="180" width="120" height="60" as="geometry"/></mxCell><mxCell id="12" value="&lt;font color=&quot;#000000&quot;&gt;게시물이 수정되었다&lt;br&gt;&lt;/font&gt;" style="rounded=1;whiteSpace=wrap;html=1;fillColor=#ffe6cc;strokeColor=#d79b00;glass=0;gradientColor=none;fontStyle=1" parent="171" vertex="1"><mxGeometry x="190" y="320" width="120" height="60" as="geometry"/></mxCell><mxCell id="13" value="&lt;font color=&quot;#000000&quot;&gt;게시물이 삭제되었다&lt;br&gt;&lt;/font&gt;" style="rounded=1;whiteSpace=wrap;html=1;fillColor=#ffe6cc;strokeColor=#d79b00;glass=0;gradientColor=none;fontStyle=1" parent="171" vertex="1"><mxGeometry x="190" y="460" width="120" height="60" as="geometry"/></mxCell><mxCell id="29" value="게시물 등록" style="rounded=1;whiteSpace=wrap;html=1;fillColor=#dae8fc;strokeColor=#6c8ebf;glass=0;fontStyle=1;fontColor=#000000;" parent="171" vertex="1"><mxGeometry x="60.000000000000114" y="180" width="120" height="60" as="geometry"/></mxCell><mxCell id="30" value="게시물 수정" style="rounded=1;whiteSpace=wrap;html=1;fillColor=#dae8fc;strokeColor=#6c8ebf;glass=0;fontStyle=1;fontColor=#000000;" parent="171" vertex="1"><mxGeometry x="60.000000000000114" y="320" width="120" height="60" as="geometry"/></mxCell><mxCell id="31" value="게시물 삭제" style="rounded=1;whiteSpace=wrap;html=1;fillColor=#dae8fc;strokeColor=#6c8ebf;glass=0;fontStyle=1;fontColor=#000000;" parent="171" vertex="1"><mxGeometry x="60.000000000000114" y="460" width="120" height="60" as="geometry"/></mxCell><mxCell id="36" value="&lt;font color=&quot;#000000&quot;&gt;댓글이 등록되었다&lt;br&gt;&lt;/font&gt;" style="rounded=1;whiteSpace=wrap;html=1;fillColor=#ffe6cc;strokeColor=#d79b00;glass=0;gradientColor=none;fontStyle=1" parent="171" vertex="1"><mxGeometry x="850" y="170" width="120" height="60" as="geometry"/></mxCell><mxCell id="38" value="댓글 등록" style="rounded=1;whiteSpace=wrap;html=1;fillColor=#dae8fc;strokeColor=#6c8ebf;glass=0;fontStyle=1;fontColor=#000000;" parent="171" vertex="1"><mxGeometry x="720" y="170" width="120" height="60" as="geometry"/></mxCell><mxCell id="39" value="&lt;font color=&quot;#000000&quot;&gt;댓글이 삭제되었다&lt;br&gt;&lt;/font&gt;" style="rounded=1;whiteSpace=wrap;html=1;fillColor=#ffe6cc;strokeColor=#d79b00;glass=0;gradientColor=none;fontStyle=1" parent="171" vertex="1"><mxGeometry x="850" y="310" width="120" height="60" as="geometry"/></mxCell><mxCell id="40" value="댓글 삭제" style="rounded=1;whiteSpace=wrap;html=1;fillColor=#dae8fc;strokeColor=#6c8ebf;glass=0;fontStyle=1;fontColor=#000000;" parent="171" vertex="1"><mxGeometry x="720" y="310" width="120" height="60" as="geometry"/></mxCell><mxCell id="51" value="&lt;b&gt;&lt;font style=&quot;font-size: 10px&quot;&gt;회원&lt;/font&gt;&lt;/b&gt;" style="rounded=0;whiteSpace=wrap;html=1;fillColor=#fff2cc;strokeColor=#d6b656;fontColor=#000000;" parent="171" vertex="1"><mxGeometry x="30.000000000000114" y="220" width="60" height="30" as="geometry"/></mxCell><mxCell id="52" value="&lt;b&gt;&lt;font style=&quot;font-size: 10px&quot;&gt;회원&lt;/font&gt;&lt;/b&gt;" style="rounded=0;whiteSpace=wrap;html=1;fillColor=#fff2cc;strokeColor=#d6b656;fontColor=#000000;" parent="171" vertex="1"><mxGeometry x="30.000000000000114" y="360" width="60" height="30" as="geometry"/></mxCell><mxCell id="53" value="&lt;b&gt;&lt;font style=&quot;font-size: 10px&quot;&gt;회원&lt;/font&gt;&lt;/b&gt;" style="rounded=0;whiteSpace=wrap;html=1;fillColor=#fff2cc;strokeColor=#d6b656;fontColor=#000000;" parent="171" vertex="1"><mxGeometry x="30.000000000000114" y="500" width="60" height="30" as="geometry"/></mxCell><mxCell id="55" value="&lt;b&gt;&lt;font style=&quot;font-size: 10px&quot;&gt;회원&lt;/font&gt;&lt;/b&gt;" style="rounded=0;whiteSpace=wrap;html=1;fillColor=#fff2cc;strokeColor=#d6b656;fontColor=#000000;" parent="171" vertex="1"><mxGeometry x="690.0000000000001" y="210" width="60" height="30" as="geometry"/></mxCell><mxCell id="56" value="&lt;b&gt;&lt;font style=&quot;font-size: 10px&quot;&gt;회원&lt;/font&gt;&lt;/b&gt;" style="rounded=0;whiteSpace=wrap;html=1;fillColor=#fff2cc;strokeColor=#d6b656;fontColor=#000000;" parent="171" vertex="1"><mxGeometry x="690.0000000000001" y="350" width="60" height="30" as="geometry"/></mxCell><mxCell id="71" value="게시물" style="rounded=1;whiteSpace=wrap;html=1;fillColor=#ffff88;strokeColor=#36393d;glass=0;fontStyle=1;fontColor=#000000;" parent="171" vertex="1"><mxGeometry x="130" y="120" width="120" height="60" as="geometry"/></mxCell><mxCell id="72" value="게시물" style="rounded=1;whiteSpace=wrap;html=1;fillColor=#ffff88;strokeColor=#36393d;glass=0;fontStyle=1;fontColor=#000000;" parent="171" vertex="1"><mxGeometry x="130" y="260" width="120" height="60" as="geometry"/></mxCell><mxCell id="73" value="게시물" style="rounded=1;whiteSpace=wrap;html=1;fillColor=#ffff88;strokeColor=#36393d;glass=0;fontStyle=1;fontColor=#000000;" parent="171" vertex="1"><mxGeometry x="130" y="400" width="120" height="60" as="geometry"/></mxCell><mxCell id="75" value="댓글" style="rounded=1;whiteSpace=wrap;html=1;fillColor=#ffff88;strokeColor=#36393d;glass=0;fontStyle=1;fontColor=#000000;" parent="171" vertex="1"><mxGeometry x="790" y="110" width="120" height="60" as="geometry"/></mxCell><mxCell id="76" value="댓글" style="rounded=1;whiteSpace=wrap;html=1;fillColor=#ffff88;strokeColor=#36393d;glass=0;fontStyle=1;fontColor=#000000;" parent="171" vertex="1"><mxGeometry x="790" y="250" width="120" height="60" as="geometry"/></mxCell><mxCell id="14" value="&lt;font color=&quot;#000000&quot;&gt;게시물이 즐겨찾기&lt;br&gt;되었다&lt;br&gt;&lt;/font&gt;" style="rounded=1;whiteSpace=wrap;html=1;fillColor=#ffe6cc;strokeColor=#d79b00;glass=0;gradientColor=none;fontStyle=1" parent="171" vertex="1"><mxGeometry x="530" y="180" width="120" height="60" as="geometry"/></mxCell><mxCell id="15" value="&lt;font color=&quot;#000000&quot;&gt;게시물 즐겨찾기가 &lt;br&gt;해제되었다&lt;br&gt;&lt;/font&gt;" style="rounded=1;whiteSpace=wrap;html=1;fillColor=#ffe6cc;strokeColor=#d79b00;glass=0;gradientColor=none;fontStyle=1" parent="171" vertex="1"><mxGeometry x="530" y="320" width="120" height="60" as="geometry"/></mxCell><mxCell id="32" value="게시물 즐겨찾기" style="rounded=1;whiteSpace=wrap;html=1;fillColor=#dae8fc;strokeColor=#6c8ebf;glass=0;fontStyle=1;fontColor=#000000;" parent="171" vertex="1"><mxGeometry x="400" y="180" width="120" height="60" as="geometry"/></mxCell><mxCell id="33" value="게시물 즐겨찾기 해제" style="rounded=1;whiteSpace=wrap;html=1;fillColor=#dae8fc;strokeColor=#6c8ebf;glass=0;fontStyle=1;fontColor=#000000;" parent="171" vertex="1"><mxGeometry x="400" y="320" width="120" height="60" as="geometry"/></mxCell><mxCell id="57" value="&lt;b&gt;&lt;font style=&quot;font-size: 10px&quot;&gt;회원&lt;/font&gt;&lt;/b&gt;" style="rounded=0;whiteSpace=wrap;html=1;fillColor=#fff2cc;strokeColor=#d6b656;fontColor=#000000;" parent="171" vertex="1"><mxGeometry x="370" y="220" width="60" height="30" as="geometry"/></mxCell><mxCell id="58" value="&lt;b&gt;&lt;font style=&quot;font-size: 10px&quot;&gt;회원&lt;/font&gt;&lt;/b&gt;" style="rounded=0;whiteSpace=wrap;html=1;fillColor=#fff2cc;strokeColor=#d6b656;fontColor=#000000;" parent="171" vertex="1"><mxGeometry x="370" y="360" width="60" height="30" as="geometry"/></mxCell><mxCell id="78" value="즐겨찾기" style="rounded=1;whiteSpace=wrap;html=1;fillColor=#ffff88;strokeColor=#36393d;glass=0;fontStyle=1;fontColor=#000000;" parent="171" vertex="1"><mxGeometry x="470" y="120" width="120" height="60" as="geometry"/></mxCell><mxCell id="79" value="즐겨찾기" style="rounded=1;whiteSpace=wrap;html=1;fillColor=#ffff88;strokeColor=#36393d;glass=0;fontStyle=1;fontColor=#000000;" parent="171" vertex="1"><mxGeometry x="470" y="260" width="120" height="60" as="geometry"/></mxCell></root></mxGraphModel></diagram></mxfile>